<svg width="256" height="256" viewBox="0 0 256 256" fill="none" xmlns="http://www.w3.org/2000/svg">
  <defs>
    <linearGradient id="hexStroke" x1="46" y1="54" x2="214" y2="206" gradientUnits="userSpaceOnUse">
      <stop stop-color="#7C3AED"/>
      <stop offset="1" stop-color="#22D3EE"/>
    </linearGradient>
    <linearGradient id="tGradient" x1="87" y1="66" x2="168" y2="199" gradientUnits="userSpaceOnUse">
      <stop stop-color="#8B5CF6"/>
      <stop offset="1" stop-color="#2DD4BF"/>
    </linearGradient>
    <linearGradient id="wingGradient" x1="73" y1="98" x2="183" y2="98" gradientUnits="userSpaceOnUse">
      <stop stop-color="#7C3AED"/>
      <stop offset="1" stop-color="#22D3EE"/>
    </linearGradient>
  </defs>

  <path d="M128 17L221 71V185L128 239L35 185V71L128 17Z" stroke="url(#hexStroke)" stroke-width="8"/>
  <path d="M128 33L207 79V177L128 223L49 177V79L128 33Z" stroke="url(#hexStroke)" stroke-opacity="0.8" stroke-width="3"/>

  <path d="M95 64H183V90H142V187L154 194L128 210L102 194L114 187V90H95V64Z" fill="url(#tGradient)"/>
  <path d="M76 92L114 70V96L76 118V92Z" fill="url(#wingGradient)"/>
  <path d="M180 92L142 70V96L180 118V92Z" fill="url(#wingGradient)"/>

  <path d="M86 114L116 98" stroke="url(#wingGradient)" stroke-width="2" stroke-linecap="round" opacity="0.9"/>
  <path d="M82 121L116 103" stroke="url(#wingGradient)" stroke-width="2" stroke-linecap="round" opacity="0.78"/>
  <path d="M78 128L116 108" stroke="url(#wingGradient)" stroke-width="2" stroke-linecap="round" opacity="0.66"/>
  <path d="M74 135L116 113" stroke="url(#wingGradient)" stroke-width="2" stroke-linecap="round" opacity="0.52"/>

  <path d="M170 114L140 98" stroke="url(#wingGradient)" stroke-width="2" stroke-linecap="round" opacity="0.9"/>
  <path d="M174 121L140 103" stroke="url(#wingGradient)" stroke-width="2" stroke-linecap="round" opacity="0.78"/>
  <path d="M178 128L140 108" stroke="url(#wingGradient)" stroke-width="2" stroke-linecap="round" opacity="0.66"/>
  <path d="M182 135L140 113" stroke="url(#wingGradient)" stroke-width="2" stroke-linecap="round" opacity="0.52"/>
</svg>
